#tb 0: 1/4
#media_type 0: video
#codec_id 0: rawvideo
#dimensions 0: 300x180
#sar 0: 0/1
0,          0,          0,        1,    81000, 0xcb92962d
0,          1,          1,        1,    81000, 0x8fef1925
0,          2,          2,        1,    81000, 0xf0350cb6
0,          3,          3,        1,    81000, 0xa70a0c52
0,          4,          4,        1,    81000, 0x21ef1490
0,          5,          5,        1,    81000, 0x98bc0c96
0,          6,          6,        1,    81000, 0x92380b27
0,          7,          7,        1,    81000, 0xbba216cd
0,          8,          8,        1,    81000, 0x92a8172b
0,          9,          9,        1,    81000, 0xfbc21592
0,         10,         10,        1,    81000, 0xdad416a1
0,         11,         11,        1,    81000, 0xec4d13aa
0,         12,         12,        1,    81000, 0xaf36fcff
0,         13,         13,        1,    81000, 0xb4fcf056
0,         14,         14,        1,    81000, 0xe3782a3f
0,         15,         15,        1,    81000, 0x714daa0b
0,         16,         16,        1,    81000, 0xe2770382
0,         17,         17,        1,    81000, 0x553253ff
0,         18,         18,        1,    81000, 0x928d8c46
0,         19,         19,        1,    81000, 0x06c8fe82
0,         20,         20,        1,    81000, 0xb8198f5a
0,         21,         21,        1,    81000, 0x0029f118
0,         22,         22,        1,    81000, 0x6fe7fc6f
0,         23,         23,        1,    81000, 0x9165edde
0,         24,         24,        1,    81000, 0xe76ae791
0,         25,         25,        1,    81000, 0xa4dd145a
0,         26,         26,        1,    81000, 0x2d7de9d8
0,         27,         27,        1,    81000, 0xe102228b
0,         28,         28,        1,    81000, 0xc57ffe0e
0,         29,         29,        1,    81000, 0x324434cb
0,         30,         30,        1,    81000, 0xedc0433e
0,         31,         31,        1,    81000, 0xd42bb18a
0,         32,         32,        1,    81000, 0xedb3d561
0,         33,         33,        1,    81000, 0x5244de92
0,         34,         34,        1,    81000, 0x0bb27280
0,         35,         35,        1,    81000, 0xc6116736
0,         36,         36,        1,    81000, 0x42f154e2
0,         37,         37,        1,    81000, 0xffbd6bf9
0,         38,         38,        1,    81000, 0x813170d0
0,         39,         39,        1,    81000, 0x430c4040
0,         40,         40,        1,    81000, 0x56d1eecb
0,         41,         41,        1,    81000, 0xaa4afa12
0,         42,         42,        1,    81000, 0x2c3d6fb8
0,         43,         43,        1,    81000, 0xfedf1e3e
0,         44,         44,        1,    81000, 0xf538d893
0,         45,         45,        1,    81000, 0xcc81c3b5
0,         46,         46,        1,    81000, 0x59b95fbc
0,         47,         47,        1,    81000, 0xb4da87a0
0,         48,         48,        1,    81000, 0x3426d5e4
0,         49,         49,        1,    81000, 0x8d066aae
0,         50,         50,        1,    81000, 0x09effe79
0,         51,         51,        1,    81000, 0xecc540ae
0,         52,         52,        1,    81000, 0x845dc90c
0,         53,         53,        1,    81000, 0x9c2fe4d2
0,         54,         54,        1,    81000, 0x8887b277
0,         55,         55,        1,    81000, 0x3bdc3ca9
0,         56,         56,        1,    81000, 0x094fbe27
0,         57,         57,        1,    81000, 0xddf22b97
0,         58,         58,        1,    81000, 0x31b23156
0,         59,         59,        1,    81000, 0xf5bf2ad8
0,         60,         60,        1,    81000, 0x4a9321c4
0,         61,         61,        1,    81000, 0xdd1b18ca
0,         62,         62,        1,    81000, 0x4ece1cdd
0,         63,         63,        1,    81000, 0x6a9a4b53
0,         64,         64,        1,    81000, 0x6624578b
0,         65,         65,        1,    81000, 0x89273a0f
0,         66,         66,        1,    81000, 0x9eb56c4c
0,         67,         67,        1,    81000, 0xe60238f5
0,         68,         68,        1,    81000, 0xbc4c228a
0,         69,         69,        1,    81000, 0x3feefa08
0,         70,         70,        1,    81000, 0x0d620f37
0,         71,         71,        1,    81000, 0x93693fc8
0,         72,         72,        1,    81000, 0xfc4b3848
0,         73,         73,        1,    81000, 0xd9950bfb
0,         74,         74,        1,    81000, 0xe5e3732d
0,         75,         75,        1,    81000, 0x53517fd2
0,         76,         76,        1,    81000, 0xb57c70b0
0,         77,         77,        1,    81000, 0x378ea87c
0,         78,         78,        1,    81000, 0xfd2b5b58
0,         79,         79,        1,    81000, 0x66d45077
0,         80,         80,        1,    81000, 0x6e07c3f8
0,         81,         81,        1,    81000, 0x39f5ed38
0,         82,         82,        1,    81000, 0x55b05da7
0,         83,         83,        1,    81000, 0x7f78a42c
0,         84,         84,        1,    81000, 0x5139b79c
0,         85,         85,        1,    81000, 0x4054437d
0,         86,         86,        1,    81000, 0x0f9dd327
0,         87,         87,        1,    81000, 0xa885c60e
0,         88,         88,        1,    81000, 0x37abaa72
0,         89,         89,        1,    81000, 0xdab25345
0,         90,         90,        1,    81000, 0xbdf4df9d
0,         91,         91,        1,    81000, 0xc5b2e2b0
0,         92,         92,        1,    81000, 0xb0b497ff
